<svg width="513" height="513" viewBox="0 0 513 513" fill="none" xmlns="http://www.w3.org/2000/svg">
<path d="M259.178 118.511L392.27 352.802H125.586L259.178 118.511Z" fill="white"/>
<path d="M231.159 1.46573C180.924 6.97256 133.692 26.3966 95.5656 57.1348C82.6567 67.5477 61.5422 89.2746 52.2358 101.69C25.7176 137.134 8.80594 177.584 2.40154 221.138C0.200022 235.856 -0.50046 263.991 0.900503 278.71C5.10339 322.063 18.9129 362.113 41.4284 396.255C82.8569 459.234 146.2 499.584 220.652 510.597C235.362 512.8 263.481 513.501 278.191 512.099C321.521 507.894 361.548 494.077 395.672 471.549C458.615 430.097 498.943 366.719 509.951 292.226C512.152 277.508 512.853 249.373 511.452 234.655C506.348 182.19 487.635 135.732 455.613 95.983C445.206 83.0669 423.491 61.9407 411.083 52.6292C375.658 26.0963 335.531 9.37553 291.7 2.76733C279.592 0.965093 242.967 0.164112 231.159 1.46573ZM322.121 236.557C356.845 297.333 385.265 347.195 385.265 347.395C385.265 347.595 328.326 347.795 258.678 347.795C189.03 347.795 132.091 347.595 132.091 347.295C132.091 346.494 258.478 125.419 258.778 125.82C258.878 125.92 287.498 175.782 322.121 236.557Z" fill="black"/>
</svg>
